<?xml version="1.0" encoding="UTF-8"?>
<svg id="Layer_1" data-name="Layer 1" xmlns="http://www.w3.org/2000/svg" version="1.1" viewBox="0 0 512 512">
  <defs>
    <style>
      .cls-1 {
        fill: #ccc;
      }

      .cls-1, .cls-2, .cls-3, .cls-4, .cls-5, .cls-6, .cls-7 {
        stroke-width: 0px;
      }

      .cls-2 {
        fill: #f2f2f2;
      }

      .cls-3 {
        fill: #e2e3e4;
      }

      .cls-4 {
        fill: #6495ed;
      }

      .cls-5 {
        fill: #999;
      }

      .cls-6 {
        fill: gray;
      }

      .cls-7 {
        fill: #231f20;
      }
    </style>
  </defs>
  <path class="cls-7" d="M29.6,118.9h62.5c-14.1,0-25.6,11.4-25.6,25.6v240.5c0,14.1,11.4,25.5,25.6,25.5H29.6c-16.4,0-29.6-13.3-29.6-29.6v-232.3c0-16.4,13.3-29.6,29.6-29.6Z"/>
  <polygon class="cls-7" points="290.2 403.1 285.6 421.6 275.2 463.9 166.1 463.9 176.5 421.6 181.1 403.1 290.2 403.1"/>
  <polygon class="cls-6" points="290.2 403.1 285.6 421.6 176.5 421.6 181.1 403.1 290.2 403.1"/>
  <rect class="cls-7" x="157.1" y="453" width="198.8" height="18.1"/>
  <path class="cls-3" d="M479.6,297.9v-153.4c0-14.1-11.4-25.6-25.6-25.6H64.7c-14.1,0-25.6,11.4-25.6,25.6v209.7h440.5v-56.3h-.1Z"/>
  <path class="cls-4" d="M244.2,142.4c22.1,0,40.1,17.9,40.1,40.1s-17.9,40.1-40.1,40.1-40.1-17.9-40.1-40.1,17.9-40.1,40.1-40.1Z"/>
  <polygon class="cls-4" points="222.4 261.9 306.1 354.1 210.2 354.1 188.4 299.3 222.4 261.9"/>
  <polygon class="cls-4" points="188.4 299.3 238.2 354.1 39.2 354.1 39.2 309.8 121.2 225.4 188.4 299.3"/>
  <path class="cls-2" d="M479.7,354.1v30.8c0,14.1-11.4,25.5-25.6,25.5H64.7c-14.1,0-25.6-11.4-25.6-25.5v-30.8h440.5Z"/>
  <rect class="cls-6" x="39.2" y="348.7" width="440.5" height="10.9"/>
  <path class="cls-7" d="M353,40.9h47.4c-15.1,0-27.4,12.3-27.4,27.4v202.2c0,15.1,12.3,27.4,27.4,27.4h-47.4c-15.1,0-27.4-12.3-27.4-27.4V68.3c0-15.1,12.3-27.4,27.4-27.4Z"/>
  <g>
    <path class="cls-1" d="M512,68.3v19.7h-157.4v-19.7c0-15.1,12.3-27.4,27.4-27.4h102.6c15.1,0,27.4,12.3,27.4,27.4Z"/>
    <path class="cls-1" d="M494.6,249.6h17.4v20.9c0,15.1-12.3,27.4-27.4,27.4h-102.6c-15.1,0-27.4-12.3-27.4-27.4v-20.9h140Z"/>
  </g>
  <path class="cls-3" d="M512,88v161.6h-157.4V88h157.4Z"/>
  <polygon class="cls-4" points="446.4 196.5 494.6 249.6 409.2 249.6 426.8 218.1 446.4 196.5"/>
  <polygon class="cls-4" points="426.8 218.1 455.4 249.6 354.6 249.6 354.6 209.2 357.3 209.2 388 175.4 426.8 218.1"/>
  <path class="cls-4" d="M459,127.5c12.8,0,23.1,10.4,23.1,23.1s-10.4,23.1-23.1,23.1-23.1-10.4-23.1-23.1,10.4-23.1,23.1-23.1Z"/>
  <g>
    <rect class="cls-7" x="354.6" y="244.1" width="157.4" height="10.9"/>
    <rect class="cls-7" x="354.6" y="82.5" width="157.4" height="10.9"/>
  </g>
  <g>
    <path class="cls-5" d="M438.3,282.9h-10c-3.2,0-5.8-2.6-5.8-5.8v-1.6c0-3.2,2.6-5.8,5.8-5.8h10c3.2,0,5.8,2.6,5.8,5.8v1.6c0,3.2-2.6,5.8-5.8,5.8Z"/>
    <path class="cls-5" d="M455,64h-43.4c-1.7,0-3-1.3-3-3s1.4-3,3-3h43.4c1.7,0,3,1.3,3,3s-1.4,3-3,3Z"/>
  </g>
</svg>