<?xml version="1.0" encoding="UTF-8"?>
<svg id="Layer_1" data-name="Layer 1" xmlns="http://www.w3.org/2000/svg" viewBox="0 0 1422.41 356.49">
  <defs>
    <style>
      .cls-1 {
        fill: none;
        stroke: #000;
        stroke-miterlimit: 10;
        stroke-width: 12px;
      }
    </style>
  </defs>
  <path class="cls-1" d="M265.26,258.66c-3.04,15.73-18.27,68.49-23.34,84.22H6v-14.21c46.17-4.57,50.23-7.1,50.23-50.23V77.03c0-43.12-5.07-45.66-45.66-49.72v-14.21h135.97v14.21c-40.59,4.06-46.17,6.09-46.17,49.72v206.49c0,30.95,4.06,38.05,32.98,38.56.51,0,37.04.51,40.08.51,25.88,0,33.49-3.04,45.15-15.73,12.68-13.19,23.34-33.49,30.95-52.26l15.73,4.06Z"/>
  <path class="cls-1" d="M475.8,6c86.76,0,164.38,66.46,164.38,167.43,0,109.08-74.07,177.07-167.43,177.07s-168.44-74.07-168.44-169.46S368.75,6,475.8,6ZM465.65,24.77c-56.82,0-108.57,47.69-108.57,142.57s51.75,163.88,123.79,163.88c61.39,0,107.56-45.66,107.56-143.58,0-106.54-56.32-162.86-122.78-162.86Z"/>
  <path class="cls-1" d="M1027.28,204.38c-31.46,4.06-33.49,7.1-33.49,37.04v42.62c0,17.76.51,34.5,3.04,48.2-31.46,7.1-72.55,18.26-115.17,18.26-115.17,0-185.18-71.54-185.18-173.52,0-107.05,87.27-170.98,188.74-170.98,51.75,0,89.8,10.15,105.53,12.68,1.01,18.77,3.55,49.72,7.61,81.68l-15.22,3.04c-12.18-43.12-26.89-61.39-58.85-72.04-11.67-4.06-32.47-6.6-47.18-6.6-77.63,0-127.85,53.27-127.85,146.12,0,80.67,41.6,160.83,140.03,160.83,17.25,0,32.98-3.55,43.12-8.62,10.66-6.09,17.25-11.67,17.25-32.47v-41.6c0-37.04-4.06-41.1-52.77-44.65v-14.71h130.39v14.71Z"/>
  <path class="cls-1" d="M1252.02,6c86.76,0,164.38,66.46,164.38,167.43,0,109.08-74.07,177.07-167.43,177.07s-168.44-74.07-168.44-169.46S1144.97,6,1252.02,6ZM1241.88,24.77c-56.82,0-108.57,47.69-108.57,142.57s51.75,163.88,123.79,163.88c61.39,0,107.56-45.66,107.56-143.58,0-106.54-56.32-162.86-122.78-162.86Z"/>
</svg>