<?xml version="1.0" encoding="UTF-8"?>
<svg id="Layer_1" data-name="Layer 1" xmlns="http://www.w3.org/2000/svg" version="1.1" viewBox="0 0 512 512">
  <path d="M508.2,153.5v-.2c-.5-4.1-4.8-40.8-22.6-59.4-20.6-21.9-43.9-24.6-55.2-25.9-.9,0-1.8-.2-2.5-.3h-.9c-67.7-5-169.9-5.7-170.9-5.7h0c-1,0-103.2.7-171.5,5.6h-.9c-.7.2-1.5.3-2.4.4-11.1,1.3-34.2,3.9-54.9,26.7-17,18.4-21.9,54.3-22.4,58.3v.5c-.4,1.7-4,42.6-4,83.6v38.3c0,40.9,3.6,81.8,3.8,83.5v.3c.5,4.1,4.8,40,22.5,58.7,19.4,21.2,43.9,24,57,25.5,2.1.2,3.9.4,5.1.7l1.2.2c39.1,3.7,161.6,5.6,166.8,5.6h.4c1,0,103.2-.7,170.9-5.6h.9c.9-.2,1.8-.3,2.9-.4,11-1.2,34-3.6,54.4-26,17-18.4,21.9-54.3,22.4-58.3v-.5c.2-1.7,3.8-42.5,3.8-83.5v-38.3c0-41-3.6-81.8-3.8-83.5v-.3ZM482,275.4c0,37.9-3.3,77-3.6,80.6-1.3,9.9-6.4,32.6-14.7,41.6-12.8,14-25.8,15.4-35.4,16.4-1.2.1-2.2.2-3.2.4-65.5,4.7-163.8,5.5-168.4,5.5s-125.8-1.9-163.7-5.4c-1.9-.3-4-.6-6.2-.8-11.2-1.3-26.6-3-38.4-16l-.3-.3c-8.1-8.5-13.2-29.7-14.4-41.1-.2-2.7-3.6-42.2-3.6-80.7v-38.3c0-37.9,3.3-76.9,3.6-80.6,1.5-11.6,6.8-33,14.7-41.6,13.1-14.5,27-16.1,36.2-17.1.9,0,1.7-.2,2.4-.3,66.4-4.8,165.5-5.5,169-5.5s102.6.7,168.4,5.5c.8,0,1.7.2,2.6.3,9.4,1.1,23.7,2.7,36.7,16.6h.1c8.1,8.6,13.2,30.2,14.4,41.9.2,2.6,3.6,42.2,3.6,80.7v38.3h.2Z" fill="#000" stroke-width="0"/>
  <g>
    <path d="M110.5,102.9c3.2,0,7.4.8,12.7,2.4.6.2,1.1.3,1.5.3s1.2-.3,2.8-.8c.5-.2,1-.3,1.6-.3,2.1,0,4.3,1.7,6.6,5,2.3,3.3,3.5,6.5,3.5,9.5s-.5,3.2-1.6,4.4c-1,1.2-2.3,1.8-3.8,1.8s-2.3-.2-3-.8c-.8-.5-2.5-2-5.2-4.5-3.8-3.5-7.4-5.2-11.1-5.2s-3.1.4-4.2,1.3c-1,.8-1.6,2-1.6,3.3,0,2.7,2.4,4.8,7.2,6.1,6.5,1.9,10.6,3.3,12.4,4.2,8,3.9,12,9.6,12,17.1s-2.7,12.1-8.2,16.3c-5.6,4.3-12.8,6.5-21.8,6.5s-8.2-.5-12.7-1.4c-4.4-1-7.6-2.1-9.6-3.4-1.5-1-2.9-3.2-4.1-6.5-1.2-3.4-1.8-6.6-1.8-9.8s.3-2.7.9-3.5c.8-1,1.8-1.5,3-1.5s2.3.6,3.4,1.8c.7.7,2.2,2.9,4.6,6.6,1.2,1.8,3,3.2,5.5,4.4,2.5,1.2,5.1,1.7,7.8,1.7s4.2-.4,5.6-1.3c1.4-.9,2.2-2,2.2-3.3s-.6-2.3-1.7-3.2c-1.1-.9-3-1.8-5.5-2.5-4.5-1.4-7.9-2.7-10.2-3.9s-4.5-2.6-6.6-4.4c-4.9-4.4-7.4-9.3-7.4-14.9s.6-5.4,1.9-8c1.3-2.6,3.1-4.9,5.4-6.8,5.2-4.4,11.7-6.6,19.2-6.6Z" fill="#000" stroke-width="0"/>
    <path d="M184.5,121.4c5.7,0,10.7,1.5,15,4.5,3.1,2.1,5.6,4.9,7.5,8.3,1.9,3.6,2.9,7.3,2.9,11.2,0,6.8-3.1,12.5-9.3,17.3-5.9,4.5-12.7,6.8-20.4,6.8s-13.5-2.1-18.1-6.4c-4.5-4.1-6.8-9.5-6.8-16.1s2.7-13.4,8.2-18.1c5.7-4.9,12.7-7.4,21-7.4ZM180.8,132.3c-1.4,0-2.5.5-3.3,1.5-.8,1-1.2,2.4-1.2,4.1s.4,4.4,1.1,7.7,1.5,6.1,2.5,8.6c1,2.6,2.5,3.8,4.7,3.8s4.2-1.8,4.2-5.3-.4-5.6-1.1-9c-.7-3.3-1.6-6.1-2.6-8.2-1-2.1-2.5-3.2-4.3-3.3Z" fill="#000" stroke-width="0"/>
    <path d="M251.5,121.5c5.6,0,10.5,1.4,14.7,4.2,4,2.7,6,6,6,9.9s-.9,4.9-2.8,6.6c-1.8,1.6-3.9,2.4-6.3,2.4s-4.5-.9-5.9-2.8c-.4-.6-1-2.1-1.8-4.5-.8-2.6-2.5-3.9-4.8-3.9s-3.2.8-4.3,2.2-1.8,3.3-1.8,5.5c0,3.8,1.3,7.1,4,10,2.2,2.3,4.9,3.5,8.2,3.5s2.9-.1,3.9-.4c1.1-.3,2.5-.8,4.2-1.6.4-.2.9-.3,1.5-.3,1.1,0,2,.5,2.8,1.5.8,1,1.2,2.2,1.2,3.5s-.6,2.9-1.7,4.4-2.7,2.9-4.5,4.1c-4.1,2.5-8.9,3.8-14.4,3.8s-11.9-1.9-16.5-5.6c-5.8-4.8-8.7-10.8-8.7-18.1s2.7-12.9,8.1-17.5c5.2-4.4,11.4-6.7,18.8-6.7Z" fill="#000" stroke-width="0"/>
    <path d="M312.9,124.7v27.2c0,2.2.2,3.7.6,4.7.4,1,1.2,1.9,2.4,2.8,1,.7,1.6,1.3,1.9,1.8.3.5.5,1.1.5,1.9,0,4-5.1,6-15.3,6s-9.9-.4-13.1-1.3c-1.1-.3-2-.9-2.6-1.6-.7-.8-1-1.7-1-2.7s.2-1.5.5-2c.3-.5,1.2-1.2,2.6-2.2,1-.7,1.7-1.9,2.1-3.5.4-1.6.6-4,.6-7.3s0-3-.2-5.8c-.1-2.8-.2-4.5-.3-4.9-.2-1.3-1.1-2.3-2.6-3-1.9-.8-2.9-2.1-2.9-3.8s1.3-3.4,3.8-4.4c3.5-1.3,7.2-2.5,11.2-3.4,4-.9,7.1-1.4,9.3-1.4s2.6,1,2.6,2.9ZM303.6,104.2c2.7,0,4.9.5,6.5,1.5,1.6,1,2.4,2.4,2.4,4.1s-1.2,4.3-3.6,5.7c-3.8,2.2-8.4,3.3-13.8,3.3s-4.1-.4-5.4-1.3c-1.8-1.1-2.7-2.7-2.7-4.7s1.9-4.8,5.8-6.3c3.9-1.6,7.6-2.3,11-2.3Z" fill="#000" stroke-width="0"/>
    <path d="M359.4,121.4c5.4,0,10,1.4,13.8,4.1,2,1.5,3.4,3.1,4.2,5,.8,1.9,1.2,4.5,1.2,7.8v7c0,4.8.2,8,.9,9.4.3.7.7,1.1,1,1.3s1,.4,2,.5c1,.2,1.5.8,1.5,2s-.6,3.1-1.8,4.7c-1.2,1.6-2.8,3-4.7,4.1-2.3,1.4-4.8,2.1-7.4,2.1s-5.9-1.1-7.8-3.4c-.7-.8-1.3-1.2-1.8-1.2s-1.5.4-2.5,1.2c-3.1,2.3-6.7,3.4-10.6,3.4s-7.4-.9-9.9-2.6c-1.7-1.2-3-2.7-3.9-4.5-1-1.9-1.5-3.8-1.5-5.8,0-3.2,1.3-6.1,3.9-8.6,4.1-3.9,10.2-5.9,18.4-6,1.8,0,3-.2,3.4-.5.5-.4.7-1.2.7-2.5,0-3.3-.3-5.7-1-7.2-.7-1.5-1.8-2.2-3.4-2.2s-1.8.3-2.5.8-1.6,1.6-2.7,3.1c-2.8,4-5.7,6-8.7,6s-2.8-.5-3.8-1.4c-1-.9-1.5-2.1-1.5-3.6s.6-3,1.8-4.5,2.8-2.8,4.9-3.9c5.7-3,11.6-4.5,17.7-4.5ZM356.2,148.6c-1.4,0-2.6.6-3.6,1.7s-1.5,2.5-1.5,4,.4,2.7,1.1,3.6c.7.9,1.7,1.4,2.9,1.4,2.5,0,3.8-2.1,3.8-6.3s-.2-2.9-.5-3.5c-.4-.6-1-.9-2-.9Z" fill="#000" stroke-width="0"/>
    <path d="M425.3,131v15c0,6.7.1,10.5.3,11.6.2,1.1,1,1.9,2.3,2.5,1.2.5,1.9,1,2.3,1.4.4.4.6,1.1.6,1.9s-.4,2-1.1,2.8-1.7,1.4-2.9,1.8c-2.2.7-6,1-11.4,1s-10.3-.5-12.7-1.4c-1.1-.4-2-1-2.8-1.9-.7-.9-1.1-1.8-1.1-2.7s.2-1.3.6-1.7c.4-.4,1.2-.9,2.6-1.5,1.2-.5,2-2,2.2-4.4.5-4.1.8-9.8.8-17.3s-.2-12.5-.7-14.7c-.4-2.2-1.5-3.8-3.3-4.9-1.3-.8-2.2-1.5-2.7-2.1-.5-.7-.7-1.5-.7-2.5,0-1.5.7-2.9,2.2-4,1.5-1.1,3.8-2.2,7-3.2,2.2-.7,5-1.3,8.4-1.9,3.4-.6,5.9-.9,7.5-.9,2.5,0,3.7,1.5,3.7,4.6s-.2,3.3-.5,6.9c-.4,5.6-.6,10.7-.7,15.4Z" fill="#000" stroke-width="0"/>
    <path d="M137.9,264l-5.6,12.6c-1,2.1-1.8,3.6-2.3,4.3-.6.7-1.2,1.1-2,1.1s-1.3-.3-1.8-.9c-.3-.4-1.1-1.8-2.4-4.1-1.2-2.4-2.3-4.5-3.1-6.3l-6.2-13.9c-.8-1.9-1.7-2.9-2.7-2.9s-1.5.8-1.6,2.5c-.2,3.7-.3,7.1-.3,10.2s.2,5.5.5,6.6c.2.7.5,1.2.9,1.5.4.3,1.3.9,2.9,1.7,1,.5,1.5,1.5,1.5,2.8,0,3.5-4.5,5.2-13.5,5.2s-11.3-1.7-11.3-5.1.2-1.5.6-1.9c.4-.4,1.4-1,3-1.8,1-.5,1.7-1.1,2.1-1.9.4-.8.7-2.4.9-4.7.3-2.5.5-6.6.8-12.3.2-5.7.4-10.6.4-14.6s-.4-8.5-1.2-10.4c-.3-.6-.6-1.1-1-1.4-.4-.3-1-.7-2-1.2-2.2-1.1-3.3-2.4-3.3-4.1s.4-2.1,1.2-3c.8-.9,1.9-1.5,3.3-1.9,1.4-.4,3.2-.8,5.5-1.1s4.2-.4,5.8-.4c4,0,6.8.3,8.5,1,.8.3,1.5.7,1.9,1.3s1.1,1.6,2,3.3l9.8,18c1.1,2,1.8,3.2,2.2,3.6.4.4,1,.7,1.7.7s1.2-.2,1.7-.7c.5-.5,1.1-1.3,1.7-2.6l6.6-12.9c.8-1.7,1.3-2.7,1.6-3.2,1.5-3.1,3-5.2,4.5-6.2,1.9-1.3,5.4-2,10.4-2,8.8,0,13.3,2,13.3,6s-.2,1.6-.5,2.2c-.3.5-1,1.2-2.1,2-1.4,1.1-2.3,2.7-2.7,4.7-.7,4.3-1.1,9.6-1.1,15.8s.4,15,1.1,21c.2,1.5.5,2.5.9,3,.4.5,1.4,1.3,3,2.4,1.1.8,1.7,1.8,1.7,3,0,2.2-1.5,3.7-4.4,4.6-1.5.5-3.1.8-4.7,1-1.7.2-4.2.2-7.6.2-5.3,0-9.2-.4-11.8-1.1-2.9-.8-4.3-2.3-4.3-4.3s.2-1.4.6-1.9,1.3-1.4,2.9-2.6c.8-.7,1.4-1.9,1.7-3.8.3-1.9.4-5.1.4-9.6s-.1-4.1-.4-4.9-.7-1.2-1.5-1.2-1.7.6-2.5,1.8c-.8,1.2-2,3.6-3.7,7.2Z" fill="#000" stroke-width="0"/>
    <path d="M231.1,262.4h-22c-1,0-1.5.4-1.5,1.3,0,2,1.1,3.9,3.3,5.7s4.6,2.7,7.1,2.7,3.2-.3,5-.9,3.3-1.3,4.5-2.1c1.1-.8,1.9-1.1,2.5-1.1s1.6.5,2.4,1.5c.8,1,1.2,2,1.2,3.1,0,2.2-1.4,4.4-4.2,6.5-5,3.7-10.7,5.6-17.2,5.6s-12.1-1.9-16.5-5.7c-2.2-1.9-3.9-4.1-5.3-6.8-1.8-3.5-2.8-7.2-2.8-11.2s1.6-10,4.8-14.2c2.7-3.6,6.2-6.3,10.5-8.1,3.2-1.3,6.6-2,10.4-2,5.9,0,11,1.7,15.1,5.1,2.1,1.7,3.8,3.7,5.1,6,1.5,2.6,2.2,5.2,2.2,7.7s-.4,3.7-1.3,5-1.9,1.9-3.3,1.9ZM210.2,253.6h4.7c2,0,3-.9,3-2.8s-.5-3.1-1.5-4.1c-1-1.1-2.2-1.6-3.8-1.6s-3.1.7-4.1,2.1c-.9,1.3-1.4,2.6-1.4,3.9s.2,1.6.7,2c.5.4,1.2.6,2.4.6Z" fill="#000" stroke-width="0"/>
    <path d="M305,223.1v42.8c0,2.4.1,4,.3,4.7s.8,1.4,1.7,2c1.1.8,1.9,1.5,2.3,2.1s.6,1.3.6,2.2c0,2.5-2.5,4.4-7.5,5.7-4.5,1.2-9.1,1.7-13.6,1.7s-1.6-.1-1.9-.4-.5-1-.6-2.1c-.2-1.6-.7-2.4-1.7-2.4s-1.4.5-2.5,1.4c-3.2,2.6-6.7,3.9-10.6,3.9s-9.2-1.8-13.1-5.4c-2.3-2.2-4.1-4.6-5.5-7.5-1.9-3.7-2.8-7.4-2.8-11.1s1.2-8.7,3.7-12.8c2.2-3.8,5.3-6.7,9.2-8.7,3.2-1.7,6.5-2.5,9.6-2.5s6.9.8,9.8,2.4c.5.2.8.4,1.1.4,1,0,1.5-1.3,1.5-4s-.3-2-.8-2.6-1.5-1.1-2.9-1.6c-2-.6-3-1.7-3-3.3,0-2.3,2.3-4.1,6.8-5.3,8-2.2,13.4-3.3,16.1-3.3s4,1.3,4,3.8ZM279.5,246.7c-2,0-3.6,1.1-4.8,3.2-1.6,2.9-2.4,6.7-2.4,11.3s.8,7.5,2.3,9.6c1.1,1.6,2.6,2.3,4.5,2.3s3.5-1.2,4.4-3.5,1.4-6.2,1.4-11.4-.5-8-1.6-9.6c-.8-1.2-2.1-1.9-3.7-2Z" fill="#000" stroke-width="0"/>
    <path d="M350.2,239.9v27.2c0,2.2.2,3.7.6,4.7.4,1,1.2,1.9,2.4,2.8,1,.7,1.6,1.3,1.9,1.8s.5,1.1.5,1.9c0,4-5.1,6-15.3,6s-9.9-.4-13.1-1.3c-1.1-.3-2-.9-2.6-1.6-.7-.8-1-1.7-1-2.7s.2-1.5.5-2c.3-.5,1.2-1.2,2.6-2.2,1-.7,1.7-1.9,2.1-3.5.4-1.6.6-4,.6-7.3s0-3-.2-5.8-.2-4.5-.3-4.9c-.2-1.3-1.1-2.3-2.6-3-1.9-.8-2.9-2.1-2.9-3.8s1.3-3.4,3.8-4.4c3.5-1.3,7.2-2.5,11.2-3.4,4-.9,7.1-1.4,9.3-1.4s2.6,1,2.6,2.9ZM340.9,219.4c2.7,0,4.9.5,6.5,1.5s2.4,2.4,2.4,4.1-1.2,4.3-3.6,5.7c-3.8,2.2-8.4,3.3-13.8,3.3s-4.1-.4-5.4-1.3c-1.8-1.1-2.7-2.7-2.7-4.7s1.9-4.8,5.8-6.3c3.9-1.6,7.6-2.3,11-2.3Z" fill="#000" stroke-width="0"/>
    <path d="M396.6,236.6c5.4,0,10,1.4,13.8,4.1,2,1.5,3.4,3.1,4.2,5s1.2,4.5,1.2,7.8v7c0,4.8.2,8,.9,9.4.3.7.7,1.1,1,1.3s1,.4,2,.5,1.5.8,1.5,2-.6,3.1-1.8,4.7-2.8,3-4.7,4.1c-2.3,1.4-4.8,2.1-7.4,2.1s-5.9-1.1-7.8-3.4c-.7-.8-1.3-1.2-1.8-1.2s-1.5.4-2.5,1.2c-3.1,2.3-6.7,3.4-10.6,3.4s-7.4-.9-9.9-2.6c-1.7-1.2-3-2.7-3.9-4.5s-1.5-3.8-1.5-5.8c0-3.2,1.3-6.1,3.9-8.6,4.1-3.9,10.2-5.9,18.4-6,1.8,0,3-.2,3.4-.5s.7-1.2.7-2.5c0-3.3-.3-5.7-1-7.2s-1.8-2.2-3.4-2.2-1.8.3-2.5.8-1.6,1.6-2.7,3.1c-2.8,4-5.7,6-8.7,6s-2.8-.5-3.8-1.4-1.5-2.1-1.5-3.6.6-3,1.8-4.5,2.8-2.8,4.9-3.9c5.7-3,11.6-4.5,17.7-4.5ZM393.5,263.8c-1.4,0-2.6.6-3.6,1.7s-1.5,2.5-1.5,4,.4,2.7,1.1,3.6,1.7,1.4,2.9,1.4c2.5,0,3.8-2.1,3.8-6.3s-.2-2.9-.5-3.5-1-.9-2-.9Z" fill="#000" stroke-width="0"/>
    <path d="M142.8,376.5v-24.7c0-3.2-.2-5.2-.7-6.1-.4-.9-1.6-1.6-3.6-2.1-2.8-.8-4.2-2.2-4.2-4.2s.6-2.5,1.8-3.2c1.2-.8,2.9-1.1,5.2-1.1s2.6,0,5.6.1h2.8c5.2,0,8.2,0,9.1-.1s4.1-.3,9.5-.8c1.8-.2,3.5-.3,5-.3,5.1,0,9.7,1,13.7,3.1,7,3.6,10.5,9.4,10.5,17.2s-2.4,11.5-7.3,15.3c-4.6,3.6-10.2,5.4-16.7,5.4s-3.7-.1-6.1-.3c-1.3,0-2.1-.1-2.4-.1-.9,0-1.4.5-1.4,1.5v.3l.3,7.7c0,1.5.3,2.6.8,3.4.5.7,1.5,1.5,3,2.3,2,1.1,3,2.3,3,3.6,0,2-1.5,3.5-4.5,4.5s-7.2,1.6-12.8,1.6c-11.6,0-17.3-2-17.3-6s.2-1.7.8-2.2c.5-.5,1.7-1.2,3.5-2.2,1.1-.6,1.8-1.4,2-2.5s.3-4.5.4-10.3ZM164,345.9v15.9c0,1.2.3,2,.8,2.2.9.4,2,.7,3.4.7,2.1,0,3.8-.6,5.2-1.7,2-1.7,3-4.4,3-8.3s-1.2-7-3.6-8.8c-1.5-1.2-3.3-1.7-5.4-1.7s-3.5.6-3.5,1.8Z" fill="#000" stroke-width="0"/>
    <path d="M238.5,351.8c5.7,0,10.7,1.5,15,4.5,3.1,2.1,5.6,4.9,7.5,8.3,1.9,3.6,2.9,7.3,2.9,11.2,0,6.8-3.1,12.5-9.3,17.3-5.9,4.5-12.7,6.8-20.4,6.8s-13.5-2.1-18.1-6.4c-4.5-4.1-6.8-9.5-6.8-16.1s2.7-13.4,8.2-18.1c5.7-4.9,12.7-7.4,21-7.4ZM234.7,362.7c-1.4,0-2.5.5-3.3,1.5-.8,1-1.2,2.4-1.2,4.1s.4,4.4,1.1,7.7,1.5,6.1,2.5,8.6c1,2.6,2.5,3.8,4.7,3.8s4.2-1.8,4.2-5.3-.4-5.6-1.1-9-1.6-6.1-2.6-8.2c-1-2.1-2.5-3.2-4.3-3.3Z" fill="#000" stroke-width="0"/>
    <path d="M297.5,351.9c1.6,0,4.1.3,7.6,1,.7.1,1.3.2,1.8.2s1.6-.3,3.1-.8c.7-.3,1.3-.4,1.8-.4,1.4,0,2.9.9,4.4,2.8,1.2,1.5,2.2,3.1,2.9,4.8s1.1,3.3,1.1,4.5-.4,2.3-1.3,3.1c-.9.8-2,1.2-3.3,1.2s-2.1-.3-2.9-.8c-.9-.5-2.2-1.7-4.1-3.5-2-1.9-3.7-2.9-5-2.9s-1.6.3-2.3,1c-.6.6-1,1.4-1,2.3,0,1.5,1.5,3,4.4,4.3,5.3,2.4,9.3,5,12.1,7.8,2.4,2.4,3.6,5.3,3.6,8.7s-1.9,8-5.7,10.9c-3.3,2.5-7.3,3.8-12,3.8s-3.4-.2-6.7-.6c-3-.3-4.7-.5-5.1-.5s-.9,0-1.4.1c-.9.1-1.6.2-2,.2-1.5,0-2.6-.4-3.5-1.1-1.3-1.2-2.5-3-3.6-5.5-1.1-2.5-1.6-4.6-1.6-6.4,0-2.9,1.1-4.3,3.4-4.3s1.7.3,2.4.9c.7.6,2.3,2.1,4.6,4.6,1.3,1.4,2.3,2.3,3.2,2.8s1.8.8,2.7.8,1.9-.3,2.5-.8c.6-.5.9-1.3.9-2.2,0-1.4-1.2-2.7-3.6-3.8-5-2.5-8.7-5-10.9-7.6-2.2-2.6-3.4-5.7-3.4-9.1s1.1-6.9,3.4-9.6c3.2-3.8,7.7-5.8,13.3-5.8Z" fill="#000" stroke-width="0"/>
    <path d="M364.2,364.2v15.8c0,1.9.5,3.4,1.4,4.6s2.1,1.8,3.5,1.8,2.8-.6,4.8-1.7c.5-.3.9-.4,1.4-.4.8,0,1.4.5,2.1,1.4s.9,1.9.9,3c0,1.9-1.1,3.8-3.2,5.6-4.4,3.8-9.8,5.7-16.1,5.7s-9-1.4-12-4.2-4.5-6.6-4.5-11.2v-21.7c0-.7,0-1.2-.3-1.3s-.6-.3-1.3-.3h-4.8c-.9,0-1.5-.1-1.7-.4-.2-.3-.4-1-.4-2.1v-2.1c0-.9.4-1.6,1.1-2.1l21.5-13.5c.5-.3,1.2-.4,2-.4h3.8c.8,0,1.3.2,1.6.5s.4,1.1.4,2.1v6.3c0,.9.1,1.5.4,1.8s.9.4,1.9.4h8.7c1.2,0,1.9.2,2.2.6s.5,1.3.5,2.7v2.8c0,1.5-.2,2.5-.7,3.1s-1.2.9-2.4.9h-8.5c-.9,0-1.5.2-1.8.5s-.5.9-.5,1.8Z" fill="#000" stroke-width="0"/>
  </g>
</svg>