<?xml version="1.0" encoding="UTF-8"?>
<svg id="Layer_1" data-name="Layer 1" xmlns="http://www.w3.org/2000/svg" baseProfile="tiny" version="1.2" viewBox="0 0 861.8 622">
  <path d="M391,414.1c-3.3,17.3-20.1,75.6-25.7,92.9H104.9v-15.7c51-5.1,55.4-7.8,55.4-55.4v-222.3c0-47.6-5.6-50.4-50.4-54.9v-15.7h150v15.7c-44.8,4.5-51,6.7-51,54.9v227.9c0,34.2,4.5,42,36.4,42.6.5,0,40.9.5,44.2.5,28.6,0,37-3.3,49.8-17.3,14-14.5,25.7-37,34.2-57.6l17.3,4.5h0Z" fill="#fff" stroke-width="0"/>
  <path d="M835.2,146.7v-.3c-.8-6.6-7.7-65.4-36.2-95.2-33-35.1-70.4-39.4-88.5-41.5-1.4-.2-2.9-.3-4-.5h-1.4C596.5,1.1,432.6,0,431,0h0c-1.6,0-165.5,1.1-275,9h-1.4c-1.1.3-2.4.5-3.8.6-17.8,2.1-54.8,6.3-88,42.8-27.3,29.5-35.1,87.1-35.9,93.5v.8c-.6,2.7-6.4,68.3-6.4,134v61.4c0,65.6,5.8,131.1,6.1,133.9v.5c.8,6.6,7.7,64.1,36.1,94.1,31.1,34,70.4,38.5,91.4,40.9,3.4.3,6.3.6,8.2,1.1l1.9.3c62.7,5.9,259.1,9,267.4,9h.6c1.6,0,165.5-1.1,274-9h1.4c1.4-.3,2.9-.5,4.6-.6,17.6-1.9,54.5-5.8,87.2-41.7,27.3-29.5,35.1-87.1,35.9-93.5v-.8c.3-2.7,6.1-68.1,6.1-133.9v-61.4c0-65.7-5.8-131.1-6.1-133.9l-.2-.5ZM793.2,342.1c0,60.8-5.3,123.5-5.8,129.2-2.1,15.9-10.3,52.3-23.6,66.7-20.5,22.4-41.4,24.7-56.8,26.3-1.9.2-3.5.3-5.1.6-105,7.5-262.6,8.8-270,8.8s-201.7-3-262.5-8.7c-3-.5-6.4-1-9.9-1.3-18-2.1-42.6-4.8-61.6-25.7l-.5-.5c-13-13.6-21.2-47.6-23.1-65.9-.3-4.3-5.8-67.7-5.8-129.4v-61.4c0-60.8,5.3-123.3,5.8-129.2,2.4-18.6,10.9-52.9,23.6-66.7,21-23.2,43.3-25.8,58-27.4,1.4-.2,2.7-.3,3.8-.5,106.5-7.7,265.3-8.8,270.9-8.8s164.5,1.1,270,8.8c1.3.2,2.7.3,4.2.5,15.1,1.8,38,4.3,58.8,26.6h.2c13,13.8,21.2,48.4,23.1,67.2.3,4.2,5.8,67.7,5.8,129.4v61.4l.3-.2Z" fill="#fff" stroke-width="0"/>
  <g>
    <g>
      <path d="M403.9,306.5c0,55.9-38.3,89.3-77.8,89.3s-78.1-31.1-78.1-89.3,38.8-89.3,78.1-89.3,77.8,31.1,77.8,89.3ZM326,383.1c36,0,51-38.3,51-76.6s-15.1-76.6-51-76.6-51.3,38.3-51.3,76.6,15.3,76.6,51.3,76.6Z" fill="#fff" stroke-width="0"/>
      <path d="M326,400.3c-41,0-82.6-32.2-82.6-93.8s13.9-56.5,25.6-68.7c15.2-16,36-25.1,57-25.1,40.9,0,82.3,32.2,82.3,93.8s-8.8,51.2-25.3,68.7c-15.1,16-35.9,25.1-57,25.1ZM326,221.7c-35.7,0-73.6,29.7-73.6,84.8s37,84.8,73.6,84.8,73.3-29.7,73.3-84.8-36.9-84.8-73.3-84.8ZM326,387.6c-18.2,0-33.1-9-43-26.2-8.2-14.2-12.8-33.7-12.8-54.9s4.5-40.7,12.8-54.9c9.9-17.1,24.8-26.2,43-26.2s33.1,9.1,42.9,26.2c8.1,14.1,12.6,33.6,12.6,54.9s-4.5,40.7-12.6,54.9c-9.9,17.1-24.7,26.2-42.9,26.2ZM326,234.4c-34.5,0-46.8,38.8-46.8,72.1s12.3,72.1,46.8,72.1,46.5-38.8,46.5-72.1-12.2-72.1-46.5-72.1Z" fill="#fff" stroke-width="0"/>
    </g>
    <g>
      <path d="M572.8,380.8c-17.6,9.2-35,15.1-56.1,15.1-51,0-85.8-38-85.8-89.3s35-89.3,86.8-89.3,37,3.8,51.3,12.3l1,37h-15.6l-6.4-37.8,15.8,5.1v14.5c-13.8-12.8-27.8-18.4-44.2-18.4-35.7,0-62,27.8-62,76.6s24,76.3,63.8,76.3,25.3-3.3,39.8-10.5l-11.5,12v-14.8c0-19.4-.3-39.3-.8-58.7h24.5c-.5,19.1-.8,38.8-.8,58.7v11.2ZM522.5,321v-10.2h66.4v10.2l-28.1,2.6h-5.1l-33.2-2.6Z" fill="#fff" stroke-width="0"/>
      <path d="M516.7,400.3c-25.7,0-48.9-9.5-65.3-26.8-16.1-17-25-40.8-25-67s9-50,25.2-67c16.5-17.3,40-26.8,66.1-26.8s38.5,4,53.6,12.9l2.1,1.3,1.2,44.1h-24l-5.1-30.3c-8-4.2-16.5-6.2-25.8-6.2-34.9,0-57.5,28.3-57.5,72.1s21.6,71.8,59.3,71.8,15.6-1.1,23.8-4v-4.8c0-14.1-.1-28.3-.4-42.3l-26.9-2.1v-18.9h75.4v18.8l-15.7,1.4c-.2,10.8-.3,21.8-.4,32.9l4.8-2.4-4.8,5c0,2.5,0,4.9,0,7.4v14l-2.4,1.3c-20.6,10.8-38.6,15.6-58.2,15.6ZM517.7,221.7c-48.4,0-82.3,34.9-82.3,84.8s33.4,84.8,81.3,84.8,19.2-1.3,28.7-4v-3.5c-7.3,2.3-14.9,3.5-23.8,3.5-42.8,0-68.3-30.2-68.3-80.8s6.5-45,18.7-59.5c12-14.1,28.5-21.6,47.8-21.6s16.5,1.4,24,4.4l-1-5.8c-7.5-1.6-15.7-2.4-25-2.4ZM568.3,371.5l-11,11.5c3.6-1.5,7.3-3.2,11-5.1v-6.5ZM554,328c.3,13.8.4,27.7.4,41.6v1.1c1.6-.7,3.3-1.5,5-2.4l9-4.4c0-12.3.2-24.5.4-36.5l-7.9.7h-5.4s-1.4-.1-1.4-.1ZM555.9,319.1h4.7l8.3-.8c0-1,0-2,0-3h-15.3c0,1.2,0,2.4,0,3.6l2.1.2ZM527,316.9l17.7,1.4c0-1,0-1.9,0-2.9h-17.7v1.5ZM578,315.3c0,.7,0,1.5,0,2.2l6.5-.6v-1.6h-6.4ZM558.2,261.9h7.1l-.2-6.3-4.4-4.1c-1.7-1.6-3.4-3-5.1-4.3l2.5,14.6ZM554.8,235.6c1.5,1,3,2,4.5,3.1v-1.7l-4.5-1.5Z" fill="#fff" stroke-width="0"/>
    </g>
    <g>
      <path d="M763.5,306.5c0,55.9-38.3,89.3-77.8,89.3s-78.1-31.1-78.1-89.3,38.8-89.3,78.1-89.3,77.8,31.1,77.8,89.3ZM685.6,383.1c36,0,51-38.3,51-76.6s-15.1-76.6-51-76.6-51.3,38.3-51.3,76.6,15.3,76.6,51.3,76.6Z" fill="#fff" stroke-width="0"/>
      <path d="M685.6,400.3c-41,0-82.6-32.2-82.6-93.8s13.9-56.5,25.6-68.7c15.2-16,36-25.1,57-25.1,40.9,0,82.3,32.2,82.3,93.8s-8.8,51.2-25.3,68.7c-15.1,16-35.9,25.1-57,25.1ZM685.6,221.7c-35.7,0-73.6,29.7-73.6,84.8s37,84.8,73.6,84.8,73.3-29.7,73.3-84.8-36.9-84.8-73.3-84.8ZM685.6,387.6c-18.2,0-33.1-9-43-26.2-8.2-14.2-12.8-33.7-12.8-54.9s4.5-40.7,12.8-54.9c9.9-17.1,24.8-26.2,43-26.2s33.1,9.1,42.9,26.2c8.1,14.1,12.6,33.6,12.6,54.9s-4.5,40.7-12.6,54.9c-9.9,17.1-24.7,26.2-42.9,26.2ZM685.6,234.4c-34.5,0-46.8,38.8-46.8,72.1s12.3,72.1,46.8,72.1,46.5-38.8,46.5-72.1-12.2-72.1-46.5-72.1Z" fill="#fff" stroke-width="0"/>
    </g>
  </g>
</svg>