<?xml version="1.0" encoding="UTF-8"?>
<svg id="Layer_1" data-name="Layer 1" xmlns="http://www.w3.org/2000/svg" version="1.1" viewBox="0 0 512 512">
  <defs>
    <style>
      .cls-1 {
        fill: #000;
        stroke-width: 0px;
      }
    </style>
  </defs>
  <path class="cls-1" d="M508.2,153.5v-.2c-.5-4.1-4.8-40.8-22.6-59.4-20.6-21.9-43.9-24.6-55.2-25.9-.9-.1-1.8-.2-2.5-.3h-.9c-67.7-5-169.9-5.7-170.9-5.7h0s0,0,0,0c-1,0-103.2.7-171.5,5.6h-.9c-.7.2-1.5.3-2.4.4-11.1,1.3-34.2,3.9-54.9,26.7-17,18.4-21.9,54.3-22.4,58.3v.5C3.6,155.2,0,196.1,0,237.1v38.3C0,316.3,3.6,357.2,3.8,358.9v.3c.5,4.1,4.8,40,22.5,58.7,19.4,21.2,43.9,24,57,25.5,2.1.2,3.9.4,5.1.7l1.2.2c39.1,3.7,161.6,5.6,166.8,5.6h.2s.2,0,.2,0c1,0,103.2-.7,170.9-5.6h.9c.9-.2,1.8-.3,2.9-.4,11-1.2,34-3.6,54.4-26,17-18.4,21.9-54.3,22.4-58.3v-.5c.2-1.7,3.8-42.5,3.8-83.5v-38.3c0-41-3.6-81.8-3.8-83.5ZM482,275.4c0,37.9-3.3,77-3.6,80.6-1.3,9.9-6.4,32.6-14.7,41.6-12.8,14-25.8,15.4-35.4,16.4-1.2.1-2.2.2-3.2.4-65.5,4.7-163.8,5.5-168.4,5.5-5.1,0-125.8-1.9-163.7-5.4-1.9-.3-4-.6-6.2-.8-11.2-1.3-26.6-3-38.4-16l-.3-.3c-8.1-8.5-13.2-29.7-14.4-41.1-.2-2.7-3.6-42.2-3.6-80.7v-38.3c0-37.9,3.3-76.9,3.6-80.6,1.5-11.6,6.8-33,14.7-41.6,13.1-14.5,27-16.1,36.2-17.1.9-.1,1.7-.2,2.4-.3,66.4-4.8,165.5-5.5,169-5.5,3.6,0,102.6.7,168.4,5.5.8.1,1.7.2,2.6.3,9.4,1.1,23.7,2.7,36.7,16.6h.1c8.1,8.6,13.2,30.2,14.4,41.9.2,2.6,3.6,42.2,3.6,80.7v38.3Z"/>
  <path class="cls-1" d="M143.8,273.7c0,13.8-1.7,23.3-5,28.3-6.1,9.2-21.2,13.8-45.5,13.8s-19.4-.8-25.3-2.5c-9.4-2.7-15.6-7.9-18.4-15.5-1.4-3.7-2.1-10.4-2.1-20s0-5.5.2-9.9c.2-4.4.2-7.7.2-9.9,0-6.3-.3-15.7-.9-28.3-.6-12.6-.9-22-.9-28.2s.6-2,1.7-2c3.3,0,8.3.1,15,.4,6.7.3,11.7.4,15,.4s2,.6,2,1.8c0,7.2-.2,17.9-.7,32.2-.5,14.3-.7,25-.7,32.2s.9,14.3,2.7,17.3c2.4,4.1,7.4,6.1,15,6.1,11.1,0,16.7-5.4,16.7-16.2s-.2-19.7-.6-35.4c-.4-15.7-.6-27.5-.6-35.4s.7-2.5,2-2.5c3.2,0,8-.1,14.5-.4,6.5-.3,11.3-.4,14.5-.4s2.4.7,2.4,2c0,6.2-.3,15.7-.8,28.2-.5,12.6-.8,22-.8,28.3s0,4.4,0,7.9c0,3.5,0,6.1,0,7.9Z"/>
  <path class="cls-1" d="M192.9,253.5c0,6.4.2,16,.5,28.9s.5,22.5.5,28.9-.2,1.8-.7,2c-.1,0-.8.2-2.1.3-3.5.4-8.2.7-14.2.7s-13-.2-15.1-.7c-1.6-.3-2.4-1.2-2.4-2.5,0,.9.2-3.9.7-14.3,1-22,1.5-36.4,1.5-43.3s-.2-14.5-.6-26.1c-.4-11.6-.6-20.3-.6-26.1s.6-1.8,1.9-1.8,4.2,0,7.6.2c3.4.2,5.9.2,7.6.2s4.2,0,7.4-.2c3.3-.2,5.8-.2,7.4-.2s2.4.6,2.4,1.8c0,5.8-.3,14.5-.9,26.1-.6,11.6-.9,20.3-.9,26.1Z"/>
  <path class="cls-1" d="M221.8,324.5c-.3,0-.7-.1-1.1-.3-4.4-1.6-9.5-3.6-15.3-6-.4-.2-.6-.7-.6-1.4s0-1.1.2-1.8c7.5-25.9,13.1-45.7,16.5-59.2l10.2-39.5c.8-3.6,2-9,3.8-16.2.3-1.2.9-1.8,1.7-1.8,1.7,0,4.9.9,9.5,2.8,5,2,7.5,3.6,7.5,4.9s-2.5,9.6-7.4,27.3c-5.4,19.4-8.3,29.7-8.7,31.1-2.1,8.1-5.3,20.9-9.7,38.6-.9,4.5-2.6,11.1-5,19.8-.4,1.2-1,1.8-1.7,1.8Z"/>
  <path class="cls-1" d="M361.9,273.7c0,13.8-1.7,23.3-5,28.3-6.1,9.2-21.2,13.8-45.5,13.8s-19.4-.8-25.3-2.5c-9.4-2.7-15.6-7.9-18.4-15.5-1.4-3.7-2.1-10.4-2.1-20s0-5.5.2-9.9c.2-4.4.2-7.7.2-9.9,0-6.3-.3-15.7-.9-28.3-.6-12.6-.9-22-.9-28.2s.6-2,1.7-2c3.3,0,8.3.1,15,.4,6.7.3,11.7.4,15,.4s2,.6,2,1.8c0,7.2-.2,17.9-.7,32.2-.5,14.3-.7,25-.7,32.2s.9,14.3,2.7,17.3c2.4,4.1,7.4,6.1,15,6.1,11.1,0,16.7-5.4,16.7-16.2s-.2-19.7-.6-35.4c-.4-15.7-.6-27.5-.6-35.4s.7-2.5,2-2.5c3.2,0,8-.1,14.5-.4,6.5-.3,11.3-.4,14.5-.4s2.4.7,2.4,2c0,6.2-.3,15.7-.8,28.2-.5,12.6-.8,22-.8,28.3s0,4.4,0,7.9c0,3.5,0,6.1,0,7.9Z"/>
  <path class="cls-1" d="M467.8,302.9c0,5.3-.2,8.5-.7,9.4-.6,1.2-2.4,1.8-5.5,1.8h-3.3c-1.6,0-3,0-4.1,0s-2.8,0-5-.2c-2.2-.1-3.8-.2-4.9-.2s-4.8-5.2-11.7-15.6c-6.9-10.4-10.6-15.7-10.8-15.7-1.1.9-5,6.4-11.7,16.4-6.4,9.6-10.1,14.6-11.2,14.9-.8.2-2.8.3-6.1.3-11.1,0-16.7-.6-16.7-1.7s0-2.8-.2-4.9c-.1-2.1-.2-3.7-.2-4.7,0-6.7.4-10.7,1.2-11.9,0,0,4.5-6,13.4-17.8,7.2-9.6,10.8-15,10.8-16.4s-3.6-6.7-10.8-16.1c-4.6-5.8-9.1-11.6-13.6-17.5-.5-.7-.8-1.9-.9-3.5,0-1.1,0-2.7,0-4.6.2-2.3.2-3.6.2-3.9,0-1.1,0-2.8-.3-5-.2-2.3-.3-4-.3-5s.9-1.5,2.8-1.5,3.1,0,5.5.2c2.4.2,4.3.2,5.5.2s2.7,0,4.8-.2c2.1-.1,3.7-.2,4.7-.2s4.8,5.3,11.8,15.8c7,10.6,10.7,15.8,11,15.8,1.1-.7,5.1-6.2,12-16.6,6.6-10,10.3-15.1,11.3-15.1h19.4c1.9,0,2.8.5,2.8,1.4v19.8c0,1.4-4.2,7.6-12.6,18.5s-12.6,16.7-12.6,17.3c0,.9,3.7,6.3,11.1,16,8.7,11.5,13.2,17.4,13.6,18,.8,1.2,1.1,5.3,1.1,12.4Z"/>
</svg>