<?xml version="1.0" encoding="UTF-8"?>
<svg id="Layer_1" data-name="Layer 1" xmlns="http://www.w3.org/2000/svg" baseProfile="tiny" version="1.2" viewBox="0 0 861.8 622">
  <path d="M835.2,146.7v-.3c-.8-6.6-7.7-65.4-36.2-95.2-33-35.1-70.4-39.4-88.5-41.5-1.4-.2-2.9-.3-4-.5h-1.4C596.5,1.1,432.6,0,431,0h0c-1.6,0-165.5,1.1-275,9h-1.4c-1.1.3-2.4.5-3.8.6-17.8,2.1-54.8,6.3-88,42.8-27.3,29.5-35.1,87.1-35.9,93.5v.8c-.6,2.7-6.4,68.3-6.4,134v61.4c0,65.6,5.8,131.1,6.1,133.9v.5c.8,6.6,7.7,64.1,36.1,94.1,31.1,34,70.4,38.5,91.4,40.9,3.4.3,6.3.6,8.2,1.1l1.9.3c62.7,5.9,259.1,9,267.4,9h.6c1.6,0,165.5-1.1,274-9h1.4c1.4-.3,2.9-.5,4.6-.6,17.6-1.9,54.5-5.8,87.2-41.7,27.3-29.5,35.1-87.1,35.9-93.5v-.8c.3-2.7,6.1-68.1,6.1-133.9v-61.4c0-65.7-5.8-131.1-6.1-133.9l-.2-.5ZM793.2,342.1c0,60.8-5.3,123.5-5.8,129.2-2.1,15.9-10.3,52.3-23.6,66.7-20.5,22.4-41.4,24.7-56.8,26.3-1.9.2-3.5.3-5.1.6-105,7.5-262.6,8.8-270,8.8s-201.7-3-262.5-8.7c-3-.5-6.4-1-9.9-1.3-18-2.1-42.6-4.8-61.6-25.7l-.5-.5c-13-13.6-21.2-47.6-23.1-65.9-.3-4.3-5.8-67.7-5.8-129.4v-61.4c0-60.8,5.3-123.3,5.8-129.2,2.4-18.6,10.9-52.9,23.6-66.7,21-23.2,43.3-25.8,58-27.4,1.4-.2,2.7-.3,3.8-.5,106.5-7.7,265.3-8.8,270.9-8.8s164.5,1.1,270,8.8c1.3.2,2.7.3,4.2.5,15.1,1.8,38,4.3,58.8,26.6h.2c13,13.8,21.2,48.4,23.1,67.2.3,4.2,5.8,67.7,5.8,129.4v61.4l.3-.2Z" fill="#fff" stroke-width="0"/>
  <path d="M251,339.4c0,22.1-2.7,37.4-8,45.4-9.8,14.7-34,22.1-72.9,22.1s-31.1-1.3-40.6-4c-15.1-4.3-25-12.7-29.5-24.9-2.2-5.9-3.4-16.7-3.4-32.1s0-8.8.3-15.9.3-12.3.3-15.9c0-10.1-.5-25.2-1.4-45.4-1-20.2-1.4-35.3-1.4-45.2s1-3.2,2.7-3.2c5.3,0,13.3.2,24,.6,10.7.5,18.8.6,24,.6s3.2,1,3.2,2.9c0,11.5-.3,28.7-1.1,51.6s-1.1,40.1-1.1,51.6,1.4,22.9,4.3,27.7c3.8,6.6,11.9,9.8,24,9.8,17.8,0,26.8-8.7,26.8-26s-.3-31.6-1-56.8c-.6-25.2-1-44.1-1-56.8s1.1-4,3.2-4c5.1,0,12.8-.2,23.2-.6,10.4-.5,18.1-.6,23.2-.6s3.8,1.1,3.8,3.2c0,9.9-.5,25.2-1.3,45.2-.8,20.2-1.3,35.3-1.3,45.4v25.3l.6-.3Z" fill="#fff" stroke-width="0"/>
  <path d="M329.7,307c0,10.3.3,25.7.8,46.3.5,20.7.8,36.1.8,46.3s-.3,2.9-1.1,3.2c-.2,0-1.3.3-3.4.5-5.6.6-13.1,1.1-22.8,1.1s-20.8-.3-24.2-1.1c-2.6-.5-3.8-1.9-3.8-4,0,1.4.3-6.3,1.1-22.9,1.6-35.3,2.4-58.4,2.4-69.4s-.3-23.2-1-41.8c-.6-18.6-1-32.5-1-41.8s1-2.9,3-2.9,6.7,0,12.2.3c5.5.3,9.5.3,12.2.3s6.7,0,11.9-.3c5.3-.3,9.3-.3,11.9-.3s3.8,1,3.8,2.9c0,9.3-.5,23.2-1.4,41.8-1,18.6-1.4,32.5-1.4,41.8h0Z" fill="#fff" stroke-width="0"/>
  <path d="M376,420.9c-.5,0-1.1-.2-1.8-.5-7.1-2.6-15.2-5.8-24.5-9.6-.6-.3-1-1.1-1-2.2s0-1.8.3-2.9c12-41.5,21-73.3,26.5-94.9l16.4-63.3c1.3-5.8,3.2-14.4,6.1-26,.5-1.9,1.4-2.9,2.7-2.9,2.7,0,7.9,1.4,15.2,4.5,8,3.2,12,5.8,12,7.9s-4,15.4-11.9,43.8c-8.7,31.1-13.3,47.6-13.9,49.9-3.4,13-8.5,33.5-15.6,61.9-1.4,7.2-4.2,17.8-8,31.7-.6,1.9-1.6,2.9-2.7,2.9l.2-.2Z" fill="#fff" stroke-width="0"/>
  <path d="M600.7,339.4c0,22.1-2.7,37.4-8,45.4-9.8,14.7-34,22.1-72.9,22.1s-31.1-1.3-40.6-4c-15.1-4.3-25-12.7-29.5-24.9-2.2-5.9-3.4-16.7-3.4-32.1s0-8.8.3-15.9.3-12.3.3-15.9c0-10.1-.5-25.2-1.4-45.4-1-20.2-1.4-35.3-1.4-45.2s1-3.2,2.7-3.2c5.3,0,13.3.2,24,.6,10.7.5,18.8.6,24,.6s3.2,1,3.2,2.9c0,11.5-.3,28.7-1.1,51.6-.8,22.9-1.1,40.1-1.1,51.6s1.4,22.9,4.3,27.7c3.8,6.6,11.9,9.8,24,9.8,17.8,0,26.8-8.7,26.8-26s-.3-31.6-1-56.8c-.6-25.2-1-44.1-1-56.8s1.1-4,3.2-4c5.1,0,12.8-.2,23.2-.6,10.4-.5,18.1-.6,23.2-.6s3.8,1.1,3.8,3.2c0,9.9-.5,25.2-1.3,45.2-.8,20.2-1.3,35.3-1.3,45.4v25.3l.6-.3Z" fill="#fff" stroke-width="0"/>
  <path d="M770.4,386.2c0,8.5-.3,13.6-1.1,15.1-1,1.9-3.8,2.9-8.8,2.9h-11.9c-1.8,0-4.5,0-8-.3-3.5-.2-6.1-.3-7.9-.3s-7.7-8.3-18.8-25c-11.1-16.7-17-25.2-17.3-25.2-1.8,1.4-8,10.3-18.8,26.3-10.3,15.4-16.2,23.4-18,23.9-1.3.3-4.5.5-9.8.5-17.8,0-26.8-1-26.8-2.7s0-4.5-.3-7.9c-.2-3.4-.3-5.9-.3-7.5,0-10.7.6-17.2,1.9-19.1,0,0,7.2-9.6,21.5-28.5,11.5-15.4,17.3-24,17.3-26.3s-5.8-10.7-17.3-25.8c-7.4-9.3-14.6-18.6-21.8-28.1-.8-1.1-1.3-3-1.4-5.6v-7.4c.3-3.7.3-5.8.3-6.3,0-1.8,0-4.5-.5-8-.3-3.7-.5-6.4-.5-8s1.4-2.4,4.5-2.4,5,0,8.8.3,6.9.3,8.8.3,4.3,0,7.7-.3c3.4-.2,5.9-.3,7.5-.3s7.7,8.5,18.9,25.3c11.2,17,17.2,25.3,17.6,25.3,1.8-1.1,8.2-9.9,19.2-26.6,10.6-16,16.5-24.2,18.1-24.2h31.1c3,0,4.5.8,4.5,2.2v31.7c0,2.2-6.7,12.2-20.2,29.7s-20.2,26.8-20.2,27.7c0,1.4,5.9,10.1,17.8,25.7,13.9,18.4,21.2,27.9,21.8,28.9,1.3,1.9,1.8,8.5,1.8,19.9l.3.2Z" fill="#fff" stroke-width="0"/>
</svg>